<?xml version="1.0" encoding="UTF-8" ?>
<svg version="1.1" width="32" height="32" xmlns="http://www.w3.org/2000/svg" shape-rendering="crispEdges">
<rect x="13" y="1" width="1" height="1" fill="#9F70FF" />
<rect x="14" y="1" width="1" height="1" fill="#9F70FF" />
<rect x="15" y="1" width="1" height="1" fill="#9F70FF" />
<rect x="16" y="1" width="1" height="1" fill="#9F70FF" />
<rect x="17" y="1" width="1" height="1" fill="#9F70FF" />
<rect x="12" y="2" width="1" height="1" fill="#9F70FF" />
<rect x="13" y="2" width="1" height="1" fill="#9F70FF" />
<rect x="14" y="2" width="1" height="1" fill="#9F70FF" />
<rect x="15" y="2" width="1" height="1" fill="#9F70FF" />
<rect x="16" y="2" width="1" height="1" fill="#9F70FF" />
<rect x="17" y="2" width="1" height="1" fill="#9F70FF" />
<rect x="18" y="2" width="1" height="1" fill="#9F70FF" />
<rect x="12" y="3" width="1" height="1" fill="#9F70FF" />
<rect x="13" y="3" width="1" height="1" fill="#9F70FF" />
<rect x="14" y="3" width="1" height="1" fill="#9F70FF" />
<rect x="15" y="3" width="1" height="1" fill="#9F70FF" />
<rect x="16" y="3" width="1" height="1" fill="#9F70FF" />
<rect x="17" y="3" width="1" height="1" fill="#9F70FF" />
<rect x="18" y="3" width="1" height="1" fill="#9F70FF" />
<rect x="12" y="4" width="1" height="1" fill="#9F70FF" />
<rect x="13" y="4" width="1" height="1" fill="#9F70FF" />
<rect x="14" y="4" width="1" height="1" fill="#9F70FF" />
<rect x="15" y="4" width="1" height="1" fill="#9F70FF" />
<rect x="16" y="4" width="1" height="1" fill="#9F70FF" />
<rect x="17" y="4" width="1" height="1" fill="#9F70FF" />
<rect x="18" y="4" width="1" height="1" fill="#9F70FF" />
<rect x="12" y="5" width="1" height="1" fill="#9F70FF" />
<rect x="13" y="5" width="1" height="1" fill="#9F70FF" />
<rect x="14" y="5" width="1" height="1" fill="#9F70FF" />
<rect x="15" y="5" width="1" height="1" fill="#9F70FF" />
<rect x="16" y="5" width="1" height="1" fill="#9F70FF" />
<rect x="17" y="5" width="1" height="1" fill="#9F70FF" />
<rect x="18" y="5" width="1" height="1" fill="#9F70FF" />
<rect x="12" y="6" width="1" height="1" fill="#9F70FF" />
<rect x="13" y="6" width="1" height="1" fill="#9F70FF" />
<rect x="14" y="6" width="1" height="1" fill="#9F70FF" />
<rect x="15" y="6" width="1" height="1" fill="#9F70FF" />
<rect x="16" y="6" width="1" height="1" fill="#9F70FF" />
<rect x="17" y="6" width="1" height="1" fill="#9F70FF" />
<rect x="18" y="6" width="1" height="1" fill="#9F70FF" />
<rect x="13" y="7" width="1" height="1" fill="#9F70FF" />
<rect x="14" y="7" width="1" height="1" fill="#9F70FF" />
<rect x="15" y="7" width="1" height="1" fill="#9F70FF" />
<rect x="16" y="7" width="1" height="1" fill="#9F70FF" />
<rect x="17" y="7" width="1" height="1" fill="#9F70FF" />
<rect x="9" y="9" width="1" height="1" fill="#9F70FF" />
<rect x="10" y="9" width="1" height="1" fill="#9F70FF" />
<rect x="11" y="9" width="1" height="1" fill="#9F70FF" />
<rect x="12" y="9" width="1" height="1" fill="#9F70FF" />
<rect x="13" y="9" width="1" height="1" fill="#9F70FF" />
<rect x="14" y="9" width="1" height="1" fill="#9F70FF" />
<rect x="15" y="9" width="1" height="1" fill="#9F70FF" />
<rect x="16" y="9" width="1" height="1" fill="#9F70FF" />
<rect x="17" y="9" width="1" height="1" fill="#9F70FF" />
<rect x="18" y="9" width="1" height="1" fill="#9F70FF" />
<rect x="19" y="9" width="1" height="1" fill="#9F70FF" />
<rect x="20" y="9" width="1" height="1" fill="#9F70FF" />
<rect x="21" y="9" width="1" height="1" fill="#9F70FF" />
<rect x="8" y="10" width="1" height="1" fill="#9F70FF" />
<rect x="9" y="10" width="1" height="1" fill="#9F70FF" />
<rect x="10" y="10" width="1" height="1" fill="#9F70FF" />
<rect x="11" y="10" width="1" height="1" fill="#9F70FF" />
<rect x="12" y="10" width="1" height="1" fill="#9F70FF" />
<rect x="13" y="10" width="1" height="1" fill="#9F70FF" />
<rect x="14" y="10" width="1" height="1" fill="#9F70FF" />
<rect x="15" y="10" width="1" height="1" fill="#9F70FF" />
<rect x="16" y="10" width="1" height="1" fill="#9F70FF" />
<rect x="17" y="10" width="1" height="1" fill="#9F70FF" />
<rect x="18" y="10" width="1" height="1" fill="#9F70FF" />
<rect x="19" y="10" width="1" height="1" fill="#9F70FF" />
<rect x="20" y="10" width="1" height="1" fill="#9F70FF" />
<rect x="21" y="10" width="1" height="1" fill="#9F70FF" />
<rect x="22" y="10" width="1" height="1" fill="#9F70FF" />
<rect x="7" y="11" width="1" height="1" fill="#9F70FF" />
<rect x="8" y="11" width="1" height="1" fill="#9F70FF" />
<rect x="9" y="11" width="1" height="1" fill="#9F70FF" />
<rect x="10" y="11" width="1" height="1" fill="#9F70FF" />
<rect x="11" y="11" width="1" height="1" fill="#9F70FF" />
<rect x="12" y="11" width="1" height="1" fill="#9F70FF" />
<rect x="13" y="11" width="1" height="1" fill="#9F70FF" />
<rect x="14" y="11" width="1" height="1" fill="#9F70FF" />
<rect x="15" y="11" width="1" height="1" fill="#9F70FF" />
<rect x="16" y="11" width="1" height="1" fill="#9F70FF" />
<rect x="17" y="11" width="1" height="1" fill="#9F70FF" />
<rect x="18" y="11" width="1" height="1" fill="#9F70FF" />
<rect x="19" y="11" width="1" height="1" fill="#9F70FF" />
<rect x="20" y="11" width="1" height="1" fill="#9F70FF" />
<rect x="21" y="11" width="1" height="1" fill="#9F70FF" />
<rect x="22" y="11" width="1" height="1" fill="#9F70FF" />
<rect x="23" y="11" width="1" height="1" fill="#9F70FF" />
<rect x="7" y="12" width="1" height="1" fill="#9F70FF" />
<rect x="8" y="12" width="1" height="1" fill="#9F70FF" />
<rect x="9" y="12" width="1" height="1" fill="#9F70FF" />
<rect x="12" y="12" width="1" height="1" fill="#9F70FF" />
<rect x="13" y="12" width="1" height="1" fill="#9F70FF" />
<rect x="14" y="12" width="1" height="1" fill="#9F70FF" />
<rect x="15" y="12" width="1" height="1" fill="#9F70FF" />
<rect x="16" y="12" width="1" height="1" fill="#9F70FF" />
<rect x="17" y="12" width="1" height="1" fill="#9F70FF" />
<rect x="18" y="12" width="1" height="1" fill="#9F70FF" />
<rect x="19" y="12" width="1" height="1" fill="#9F70FF" />
<rect x="21" y="12" width="1" height="1" fill="#9F70FF" />
<rect x="22" y="12" width="1" height="1" fill="#9F70FF" />
<rect x="23" y="12" width="1" height="1" fill="#9F70FF" />
<rect x="24" y="12" width="1" height="1" fill="#9F70FF" />
<rect x="6" y="13" width="1" height="1" fill="#9F70FF" />
<rect x="7" y="13" width="1" height="1" fill="#9F70FF" />
<rect x="8" y="13" width="1" height="1" fill="#9F70FF" />
<rect x="12" y="13" width="1" height="1" fill="#9F70FF" />
<rect x="13" y="13" width="1" height="1" fill="#9F70FF" />
<rect x="14" y="13" width="1" height="1" fill="#9F70FF" />
<rect x="15" y="13" width="1" height="1" fill="#9F70FF" />
<rect x="16" y="13" width="1" height="1" fill="#9F70FF" />
<rect x="17" y="13" width="1" height="1" fill="#9F70FF" />
<rect x="18" y="13" width="1" height="1" fill="#9F70FF" />
<rect x="19" y="13" width="1" height="1" fill="#9F70FF" />
<rect x="22" y="13" width="1" height="1" fill="#9F70FF" />
<rect x="23" y="13" width="1" height="1" fill="#9F70FF" />
<rect x="24" y="13" width="1" height="1" fill="#9F70FF" />
<rect x="25" y="13" width="1" height="1" fill="#9F70FF" />
<rect x="26" y="13" width="1" height="1" fill="#9F70FF" />
<rect x="6" y="14" width="1" height="1" fill="#9F70FF" />
<rect x="7" y="14" width="1" height="1" fill="#9F70FF" />
<rect x="8" y="14" width="1" height="1" fill="#9F70FF" />
<rect x="12" y="14" width="1" height="1" fill="#9F70FF" />
<rect x="13" y="14" width="1" height="1" fill="#9F70FF" />
<rect x="14" y="14" width="1" height="1" fill="#9F70FF" />
<rect x="15" y="14" width="1" height="1" fill="#9F70FF" />
<rect x="16" y="14" width="1" height="1" fill="#9F70FF" />
<rect x="17" y="14" width="1" height="1" fill="#9F70FF" />
<rect x="18" y="14" width="1" height="1" fill="#9F70FF" />
<rect x="19" y="14" width="1" height="1" fill="#9F70FF" />
<rect x="24" y="14" width="1" height="1" fill="#9F70FF" />
<rect x="25" y="14" width="1" height="1" fill="#9F70FF" />
<rect x="26" y="14" width="1" height="1" fill="#9F70FF" />
<rect x="27" y="14" width="1" height="1" fill="#9F70FF" />
<rect x="28" y="14" width="1" height="1" fill="#9F70FF" />
<rect x="6" y="15" width="1" height="1" fill="#9F70FF" />
<rect x="7" y="15" width="1" height="1" fill="#9F70FF" />
<rect x="8" y="15" width="1" height="1" fill="#9F70FF" />
<rect x="12" y="15" width="1" height="1" fill="#9F70FF" />
<rect x="13" y="15" width="1" height="1" fill="#9F70FF" />
<rect x="14" y="15" width="1" height="1" fill="#9F70FF" />
<rect x="15" y="15" width="1" height="1" fill="#9F70FF" />
<rect x="16" y="15" width="1" height="1" fill="#9F70FF" />
<rect x="17" y="15" width="1" height="1" fill="#9F70FF" />
<rect x="18" y="15" width="1" height="1" fill="#9F70FF" />
<rect x="19" y="15" width="1" height="1" fill="#9F70FF" />
<rect x="26" y="15" width="1" height="1" fill="#9F70FF" />
<rect x="27" y="15" width="1" height="1" fill="#9F70FF" />
<rect x="28" y="15" width="1" height="1" fill="#9F70FF" />
<rect x="7" y="16" width="1" height="1" fill="#9F70FF" />
<rect x="8" y="16" width="1" height="1" fill="#9F70FF" />
<rect x="9" y="16" width="1" height="1" fill="#9F70FF" />
<rect x="12" y="16" width="1" height="1" fill="#9F70FF" />
<rect x="13" y="16" width="1" height="1" fill="#9F70FF" />
<rect x="14" y="16" width="1" height="1" fill="#9F70FF" />
<rect x="15" y="16" width="1" height="1" fill="#9F70FF" />
<rect x="16" y="16" width="1" height="1" fill="#9F70FF" />
<rect x="17" y="16" width="1" height="1" fill="#9F70FF" />
<rect x="18" y="16" width="1" height="1" fill="#9F70FF" />
<rect x="19" y="16" width="1" height="1" fill="#9F70FF" />
<rect x="7" y="17" width="1" height="1" fill="#9F70FF" />
<rect x="8" y="17" width="1" height="1" fill="#9F70FF" />
<rect x="9" y="17" width="1" height="1" fill="#9F70FF" />
<rect x="10" y="17" width="1" height="1" fill="#9F70FF" />
<rect x="12" y="17" width="1" height="1" fill="#9F70FF" />
<rect x="13" y="17" width="1" height="1" fill="#9F70FF" />
<rect x="14" y="17" width="1" height="1" fill="#9F70FF" />
<rect x="15" y="17" width="1" height="1" fill="#9F70FF" />
<rect x="16" y="17" width="1" height="1" fill="#9F70FF" />
<rect x="17" y="17" width="1" height="1" fill="#9F70FF" />
<rect x="18" y="17" width="1" height="1" fill="#9F70FF" />
<rect x="19" y="17" width="1" height="1" fill="#9F70FF" />
<rect x="9" y="18" width="1" height="1" fill="#9F70FF" />
<rect x="10" y="18" width="1" height="1" fill="#9F70FF" />
<rect x="12" y="18" width="1" height="1" fill="#9F70FF" />
<rect x="13" y="18" width="1" height="1" fill="#9F70FF" />
<rect x="14" y="18" width="1" height="1" fill="#9F70FF" />
<rect x="15" y="18" width="1" height="1" fill="#9F70FF" />
<rect x="16" y="18" width="1" height="1" fill="#9F70FF" />
<rect x="17" y="18" width="1" height="1" fill="#9F70FF" />
<rect x="18" y="18" width="1" height="1" fill="#9F70FF" />
<rect x="19" y="18" width="1" height="1" fill="#9F70FF" />
<rect x="12" y="19" width="1" height="1" fill="#9F70FF" />
<rect x="13" y="19" width="1" height="1" fill="#9F70FF" />
<rect x="14" y="19" width="1" height="1" fill="#9F70FF" />
<rect x="15" y="19" width="1" height="1" fill="#9F70FF" />
<rect x="16" y="19" width="1" height="1" fill="#9F70FF" />
<rect x="17" y="19" width="1" height="1" fill="#9F70FF" />
<rect x="18" y="19" width="1" height="1" fill="#9F70FF" />
<rect x="19" y="19" width="1" height="1" fill="#9F70FF" />
<rect x="12" y="20" width="1" height="1" fill="#9F70FF" />
<rect x="13" y="20" width="1" height="1" fill="#9F70FF" />
<rect x="14" y="20" width="1" height="1" fill="#9F70FF" />
<rect x="15" y="20" width="1" height="1" fill="#9F70FF" />
<rect x="16" y="20" width="1" height="1" fill="#9F70FF" />
<rect x="17" y="20" width="1" height="1" fill="#9F70FF" />
<rect x="18" y="20" width="1" height="1" fill="#9F70FF" />
<rect x="19" y="20" width="1" height="1" fill="#9F70FF" />
<rect x="12" y="21" width="1" height="1" fill="#9F70FF" />
<rect x="13" y="21" width="1" height="1" fill="#9F70FF" />
<rect x="14" y="21" width="1" height="1" fill="#9F70FF" />
<rect x="15" y="21" width="1" height="1" fill="#9F70FF" />
<rect x="16" y="21" width="1" height="1" fill="#9F70FF" />
<rect x="17" y="21" width="1" height="1" fill="#9F70FF" />
<rect x="18" y="21" width="1" height="1" fill="#9F70FF" />
<rect x="19" y="21" width="1" height="1" fill="#9F70FF" />
<rect x="20" y="21" width="1" height="1" fill="#9F70FF" />
<rect x="2" y="22" width="1" height="1" fill="#9F70FF" />
<rect x="3" y="22" width="1" height="1" fill="#9F70FF" />
<rect x="4" y="22" width="1" height="1" fill="#9F70FF" />
<rect x="11" y="22" width="1" height="1" fill="#9F70FF" />
<rect x="12" y="22" width="1" height="1" fill="#9F70FF" />
<rect x="13" y="22" width="1" height="1" fill="#9F70FF" />
<rect x="14" y="22" width="1" height="1" fill="#9F70FF" />
<rect x="15" y="22" width="1" height="1" fill="#9F70FF" />
<rect x="16" y="22" width="1" height="1" fill="#9F70FF" />
<rect x="17" y="22" width="1" height="1" fill="#9F70FF" />
<rect x="18" y="22" width="1" height="1" fill="#9F70FF" />
<rect x="19" y="22" width="1" height="1" fill="#9F70FF" />
<rect x="20" y="22" width="1" height="1" fill="#9F70FF" />
<rect x="21" y="22" width="1" height="1" fill="#9F70FF" />
<rect x="2" y="23" width="1" height="1" fill="#9F70FF" />
<rect x="3" y="23" width="1" height="1" fill="#9F70FF" />
<rect x="4" y="23" width="1" height="1" fill="#9F70FF" />
<rect x="5" y="23" width="1" height="1" fill="#9F70FF" />
<rect x="6" y="23" width="1" height="1" fill="#9F70FF" />
<rect x="10" y="23" width="1" height="1" fill="#9F70FF" />
<rect x="11" y="23" width="1" height="1" fill="#9F70FF" />
<rect x="12" y="23" width="1" height="1" fill="#9F70FF" />
<rect x="13" y="23" width="1" height="1" fill="#9F70FF" />
<rect x="14" y="23" width="1" height="1" fill="#9F70FF" />
<rect x="18" y="23" width="1" height="1" fill="#9F70FF" />
<rect x="19" y="23" width="1" height="1" fill="#9F70FF" />
<rect x="20" y="23" width="1" height="1" fill="#9F70FF" />
<rect x="21" y="23" width="1" height="1" fill="#9F70FF" />
<rect x="22" y="23" width="1" height="1" fill="#9F70FF" />
<rect x="3" y="24" width="1" height="1" fill="#9F70FF" />
<rect x="4" y="24" width="1" height="1" fill="#9F70FF" />
<rect x="5" y="24" width="1" height="1" fill="#9F70FF" />
<rect x="6" y="24" width="1" height="1" fill="#9F70FF" />
<rect x="7" y="24" width="1" height="1" fill="#9F70FF" />
<rect x="8" y="24" width="1" height="1" fill="#9F70FF" />
<rect x="9" y="24" width="1" height="1" fill="#9F70FF" />
<rect x="10" y="24" width="1" height="1" fill="#9F70FF" />
<rect x="11" y="24" width="1" height="1" fill="#9F70FF" />
<rect x="12" y="24" width="1" height="1" fill="#9F70FF" />
<rect x="13" y="24" width="1" height="1" fill="#9F70FF" />
<rect x="19" y="24" width="1" height="1" fill="#9F70FF" />
<rect x="20" y="24" width="1" height="1" fill="#9F70FF" />
<rect x="21" y="24" width="1" height="1" fill="#9F70FF" />
<rect x="22" y="24" width="1" height="1" fill="#9F70FF" />
<rect x="4" y="25" width="1" height="1" fill="#9F70FF" />
<rect x="5" y="25" width="1" height="1" fill="#9F70FF" />
<rect x="6" y="25" width="1" height="1" fill="#9F70FF" />
<rect x="7" y="25" width="1" height="1" fill="#9F70FF" />
<rect x="8" y="25" width="1" height="1" fill="#9F70FF" />
<rect x="9" y="25" width="1" height="1" fill="#9F70FF" />
<rect x="10" y="25" width="1" height="1" fill="#9F70FF" />
<rect x="11" y="25" width="1" height="1" fill="#9F70FF" />
<rect x="12" y="25" width="1" height="1" fill="#9F70FF" />
<rect x="19" y="25" width="1" height="1" fill="#9F70FF" />
<rect x="20" y="25" width="1" height="1" fill="#9F70FF" />
<rect x="21" y="25" width="1" height="1" fill="#9F70FF" />
<rect x="22" y="25" width="1" height="1" fill="#9F70FF" />
<rect x="6" y="26" width="1" height="1" fill="#9F70FF" />
<rect x="7" y="26" width="1" height="1" fill="#9F70FF" />
<rect x="8" y="26" width="1" height="1" fill="#9F70FF" />
<rect x="9" y="26" width="1" height="1" fill="#9F70FF" />
<rect x="10" y="26" width="1" height="1" fill="#9F70FF" />
<rect x="11" y="26" width="1" height="1" fill="#9F70FF" />
<rect x="20" y="26" width="1" height="1" fill="#9F70FF" />
<rect x="21" y="26" width="1" height="1" fill="#9F70FF" />
<rect x="22" y="26" width="1" height="1" fill="#9F70FF" />
<rect x="23" y="26" width="1" height="1" fill="#9F70FF" />
<rect x="8" y="27" width="1" height="1" fill="#9F70FF" />
<rect x="9" y="27" width="1" height="1" fill="#9F70FF" />
<rect x="10" y="27" width="1" height="1" fill="#9F70FF" />
<rect x="20" y="27" width="1" height="1" fill="#9F70FF" />
<rect x="21" y="27" width="1" height="1" fill="#9F70FF" />
<rect x="22" y="27" width="1" height="1" fill="#9F70FF" />
<rect x="23" y="27" width="1" height="1" fill="#9F70FF" />
<rect x="21" y="28" width="1" height="1" fill="#9F70FF" />
<rect x="22" y="28" width="1" height="1" fill="#9F70FF" />
<rect x="23" y="28" width="1" height="1" fill="#9F70FF" />
<rect x="21" y="29" width="1" height="1" fill="#9F70FF" />
<rect x="22" y="29" width="1" height="1" fill="#9F70FF" />
<rect x="23" y="29" width="1" height="1" fill="#9F70FF" />
<rect x="21" y="30" width="1" height="1" fill="#9F70FF" />
<rect x="22" y="30" width="1" height="1" fill="#9F70FF" />
<rect x="21" y="31" width="1" height="1" fill="#9F70FF" />
<rect x="22" y="31" width="1" height="1" fill="#9F70FF" />
</svg>