<?xml version="1.0" encoding="UTF-8" ?>
<svg version="1.1" width="32" height="32" xmlns="http://www.w3.org/2000/svg" shape-rendering="crispEdges">
<rect x="2" y="2" width="1" height="1" fill="#9F70FF" />
<rect x="3" y="2" width="1" height="1" fill="#9F70FF" />
<rect x="4" y="2" width="1" height="1" fill="#9F70FF" />
<rect x="27" y="2" width="1" height="1" fill="#9F70FF" />
<rect x="28" y="2" width="1" height="1" fill="#9F70FF" />
<rect x="29" y="2" width="1" height="1" fill="#9F70FF" />
<rect x="2" y="3" width="1" height="1" fill="#9F70FF" />
<rect x="3" y="3" width="1" height="1" fill="#9F70FF" />
<rect x="4" y="3" width="1" height="1" fill="#9F70FF" />
<rect x="5" y="3" width="1" height="1" fill="#9F70FF" />
<rect x="26" y="3" width="1" height="1" fill="#9F70FF" />
<rect x="27" y="3" width="1" height="1" fill="#9F70FF" />
<rect x="28" y="3" width="1" height="1" fill="#9F70FF" />
<rect x="29" y="3" width="1" height="1" fill="#9F70FF" />
<rect x="2" y="4" width="1" height="1" fill="#9F70FF" />
<rect x="3" y="4" width="1" height="1" fill="#9F70FF" />
<rect x="4" y="4" width="1" height="1" fill="#9F70FF" />
<rect x="5" y="4" width="1" height="1" fill="#9F70FF" />
<rect x="6" y="4" width="1" height="1" fill="#9F70FF" />
<rect x="25" y="4" width="1" height="1" fill="#9F70FF" />
<rect x="26" y="4" width="1" height="1" fill="#9F70FF" />
<rect x="27" y="4" width="1" height="1" fill="#9F70FF" />
<rect x="28" y="4" width="1" height="1" fill="#9F70FF" />
<rect x="29" y="4" width="1" height="1" fill="#9F70FF" />
<rect x="3" y="5" width="1" height="1" fill="#9F70FF" />
<rect x="4" y="5" width="1" height="1" fill="#9F70FF" />
<rect x="5" y="5" width="1" height="1" fill="#9F70FF" />
<rect x="6" y="5" width="1" height="1" fill="#9F70FF" />
<rect x="7" y="5" width="1" height="1" fill="#9F70FF" />
<rect x="24" y="5" width="1" height="1" fill="#9F70FF" />
<rect x="25" y="5" width="1" height="1" fill="#9F70FF" />
<rect x="26" y="5" width="1" height="1" fill="#9F70FF" />
<rect x="27" y="5" width="1" height="1" fill="#9F70FF" />
<rect x="28" y="5" width="1" height="1" fill="#9F70FF" />
<rect x="4" y="6" width="1" height="1" fill="#9F70FF" />
<rect x="5" y="6" width="1" height="1" fill="#9F70FF" />
<rect x="6" y="6" width="1" height="1" fill="#9F70FF" />
<rect x="7" y="6" width="1" height="1" fill="#9F70FF" />
<rect x="8" y="6" width="1" height="1" fill="#9F70FF" />
<rect x="23" y="6" width="1" height="1" fill="#9F70FF" />
<rect x="24" y="6" width="1" height="1" fill="#9F70FF" />
<rect x="25" y="6" width="1" height="1" fill="#9F70FF" />
<rect x="26" y="6" width="1" height="1" fill="#9F70FF" />
<rect x="27" y="6" width="1" height="1" fill="#9F70FF" />
<rect x="5" y="7" width="1" height="1" fill="#9F70FF" />
<rect x="6" y="7" width="1" height="1" fill="#9F70FF" />
<rect x="7" y="7" width="1" height="1" fill="#9F70FF" />
<rect x="8" y="7" width="1" height="1" fill="#9F70FF" />
<rect x="9" y="7" width="1" height="1" fill="#9F70FF" />
<rect x="22" y="7" width="1" height="1" fill="#9F70FF" />
<rect x="23" y="7" width="1" height="1" fill="#9F70FF" />
<rect x="24" y="7" width="1" height="1" fill="#9F70FF" />
<rect x="25" y="7" width="1" height="1" fill="#9F70FF" />
<rect x="26" y="7" width="1" height="1" fill="#9F70FF" />
<rect x="6" y="8" width="1" height="1" fill="#9F70FF" />
<rect x="7" y="8" width="1" height="1" fill="#9F70FF" />
<rect x="8" y="8" width="1" height="1" fill="#9F70FF" />
<rect x="9" y="8" width="1" height="1" fill="#9F70FF" />
<rect x="10" y="8" width="1" height="1" fill="#9F70FF" />
<rect x="21" y="8" width="1" height="1" fill="#9F70FF" />
<rect x="22" y="8" width="1" height="1" fill="#9F70FF" />
<rect x="23" y="8" width="1" height="1" fill="#9F70FF" />
<rect x="24" y="8" width="1" height="1" fill="#9F70FF" />
<rect x="25" y="8" width="1" height="1" fill="#9F70FF" />
<rect x="7" y="9" width="1" height="1" fill="#9F70FF" />
<rect x="8" y="9" width="1" height="1" fill="#9F70FF" />
<rect x="9" y="9" width="1" height="1" fill="#9F70FF" />
<rect x="10" y="9" width="1" height="1" fill="#9F70FF" />
<rect x="11" y="9" width="1" height="1" fill="#9F70FF" />
<rect x="20" y="9" width="1" height="1" fill="#9F70FF" />
<rect x="21" y="9" width="1" height="1" fill="#9F70FF" />
<rect x="22" y="9" width="1" height="1" fill="#9F70FF" />
<rect x="23" y="9" width="1" height="1" fill="#9F70FF" />
<rect x="24" y="9" width="1" height="1" fill="#9F70FF" />
<rect x="8" y="10" width="1" height="1" fill="#9F70FF" />
<rect x="9" y="10" width="1" height="1" fill="#9F70FF" />
<rect x="10" y="10" width="1" height="1" fill="#9F70FF" />
<rect x="11" y="10" width="1" height="1" fill="#9F70FF" />
<rect x="12" y="10" width="1" height="1" fill="#9F70FF" />
<rect x="19" y="10" width="1" height="1" fill="#9F70FF" />
<rect x="20" y="10" width="1" height="1" fill="#9F70FF" />
<rect x="21" y="10" width="1" height="1" fill="#9F70FF" />
<rect x="22" y="10" width="1" height="1" fill="#9F70FF" />
<rect x="23" y="10" width="1" height="1" fill="#9F70FF" />
<rect x="9" y="11" width="1" height="1" fill="#9F70FF" />
<rect x="10" y="11" width="1" height="1" fill="#9F70FF" />
<rect x="11" y="11" width="1" height="1" fill="#9F70FF" />
<rect x="12" y="11" width="1" height="1" fill="#9F70FF" />
<rect x="13" y="11" width="1" height="1" fill="#9F70FF" />
<rect x="18" y="11" width="1" height="1" fill="#9F70FF" />
<rect x="19" y="11" width="1" height="1" fill="#9F70FF" />
<rect x="20" y="11" width="1" height="1" fill="#9F70FF" />
<rect x="21" y="11" width="1" height="1" fill="#9F70FF" />
<rect x="22" y="11" width="1" height="1" fill="#9F70FF" />
<rect x="10" y="12" width="1" height="1" fill="#9F70FF" />
<rect x="11" y="12" width="1" height="1" fill="#9F70FF" />
<rect x="12" y="12" width="1" height="1" fill="#9F70FF" />
<rect x="13" y="12" width="1" height="1" fill="#9F70FF" />
<rect x="14" y="12" width="1" height="1" fill="#9F70FF" />
<rect x="17" y="12" width="1" height="1" fill="#9F70FF" />
<rect x="18" y="12" width="1" height="1" fill="#9F70FF" />
<rect x="19" y="12" width="1" height="1" fill="#9F70FF" />
<rect x="20" y="12" width="1" height="1" fill="#9F70FF" />
<rect x="21" y="12" width="1" height="1" fill="#9F70FF" />
<rect x="11" y="13" width="1" height="1" fill="#9F70FF" />
<rect x="12" y="13" width="1" height="1" fill="#9F70FF" />
<rect x="13" y="13" width="1" height="1" fill="#9F70FF" />
<rect x="14" y="13" width="1" height="1" fill="#9F70FF" />
<rect x="15" y="13" width="1" height="1" fill="#9F70FF" />
<rect x="16" y="13" width="1" height="1" fill="#9F70FF" />
<rect x="17" y="13" width="1" height="1" fill="#9F70FF" />
<rect x="18" y="13" width="1" height="1" fill="#9F70FF" />
<rect x="19" y="13" width="1" height="1" fill="#9F70FF" />
<rect x="20" y="13" width="1" height="1" fill="#9F70FF" />
<rect x="12" y="14" width="1" height="1" fill="#9F70FF" />
<rect x="13" y="14" width="1" height="1" fill="#9F70FF" />
<rect x="14" y="14" width="1" height="1" fill="#9F70FF" />
<rect x="15" y="14" width="1" height="1" fill="#9F70FF" />
<rect x="16" y="14" width="1" height="1" fill="#9F70FF" />
<rect x="17" y="14" width="1" height="1" fill="#9F70FF" />
<rect x="18" y="14" width="1" height="1" fill="#9F70FF" />
<rect x="19" y="14" width="1" height="1" fill="#9F70FF" />
<rect x="13" y="15" width="1" height="1" fill="#9F70FF" />
<rect x="14" y="15" width="1" height="1" fill="#9F70FF" />
<rect x="15" y="15" width="1" height="1" fill="#9F70FF" />
<rect x="16" y="15" width="1" height="1" fill="#9F70FF" />
<rect x="17" y="15" width="1" height="1" fill="#9F70FF" />
<rect x="18" y="15" width="1" height="1" fill="#9F70FF" />
<rect x="13" y="16" width="1" height="1" fill="#9F70FF" />
<rect x="14" y="16" width="1" height="1" fill="#9F70FF" />
<rect x="15" y="16" width="1" height="1" fill="#9F70FF" />
<rect x="16" y="16" width="1" height="1" fill="#9F70FF" />
<rect x="17" y="16" width="1" height="1" fill="#9F70FF" />
<rect x="18" y="16" width="1" height="1" fill="#9F70FF" />
<rect x="12" y="17" width="1" height="1" fill="#9F70FF" />
<rect x="13" y="17" width="1" height="1" fill="#9F70FF" />
<rect x="14" y="17" width="1" height="1" fill="#9F70FF" />
<rect x="15" y="17" width="1" height="1" fill="#9F70FF" />
<rect x="16" y="17" width="1" height="1" fill="#9F70FF" />
<rect x="17" y="17" width="1" height="1" fill="#9F70FF" />
<rect x="18" y="17" width="1" height="1" fill="#9F70FF" />
<rect x="19" y="17" width="1" height="1" fill="#9F70FF" />
<rect x="11" y="18" width="1" height="1" fill="#9F70FF" />
<rect x="12" y="18" width="1" height="1" fill="#9F70FF" />
<rect x="13" y="18" width="1" height="1" fill="#9F70FF" />
<rect x="14" y="18" width="1" height="1" fill="#9F70FF" />
<rect x="15" y="18" width="1" height="1" fill="#9F70FF" />
<rect x="16" y="18" width="1" height="1" fill="#9F70FF" />
<rect x="17" y="18" width="1" height="1" fill="#9F70FF" />
<rect x="18" y="18" width="1" height="1" fill="#9F70FF" />
<rect x="19" y="18" width="1" height="1" fill="#9F70FF" />
<rect x="20" y="18" width="1" height="1" fill="#9F70FF" />
<rect x="10" y="19" width="1" height="1" fill="#9F70FF" />
<rect x="11" y="19" width="1" height="1" fill="#9F70FF" />
<rect x="12" y="19" width="1" height="1" fill="#9F70FF" />
<rect x="13" y="19" width="1" height="1" fill="#9F70FF" />
<rect x="14" y="19" width="1" height="1" fill="#9F70FF" />
<rect x="17" y="19" width="1" height="1" fill="#9F70FF" />
<rect x="18" y="19" width="1" height="1" fill="#9F70FF" />
<rect x="19" y="19" width="1" height="1" fill="#9F70FF" />
<rect x="20" y="19" width="1" height="1" fill="#9F70FF" />
<rect x="21" y="19" width="1" height="1" fill="#9F70FF" />
<rect x="9" y="20" width="1" height="1" fill="#9F70FF" />
<rect x="10" y="20" width="1" height="1" fill="#9F70FF" />
<rect x="11" y="20" width="1" height="1" fill="#9F70FF" />
<rect x="12" y="20" width="1" height="1" fill="#9F70FF" />
<rect x="13" y="20" width="1" height="1" fill="#9F70FF" />
<rect x="18" y="20" width="1" height="1" fill="#9F70FF" />
<rect x="19" y="20" width="1" height="1" fill="#9F70FF" />
<rect x="20" y="20" width="1" height="1" fill="#9F70FF" />
<rect x="21" y="20" width="1" height="1" fill="#9F70FF" />
<rect x="22" y="20" width="1" height="1" fill="#9F70FF" />
<rect x="8" y="21" width="1" height="1" fill="#9F70FF" />
<rect x="9" y="21" width="1" height="1" fill="#9F70FF" />
<rect x="10" y="21" width="1" height="1" fill="#9F70FF" />
<rect x="11" y="21" width="1" height="1" fill="#9F70FF" />
<rect x="12" y="21" width="1" height="1" fill="#9F70FF" />
<rect x="19" y="21" width="1" height="1" fill="#9F70FF" />
<rect x="20" y="21" width="1" height="1" fill="#9F70FF" />
<rect x="21" y="21" width="1" height="1" fill="#9F70FF" />
<rect x="22" y="21" width="1" height="1" fill="#9F70FF" />
<rect x="23" y="21" width="1" height="1" fill="#9F70FF" />
<rect x="7" y="22" width="1" height="1" fill="#9F70FF" />
<rect x="8" y="22" width="1" height="1" fill="#9F70FF" />
<rect x="9" y="22" width="1" height="1" fill="#9F70FF" />
<rect x="10" y="22" width="1" height="1" fill="#9F70FF" />
<rect x="11" y="22" width="1" height="1" fill="#9F70FF" />
<rect x="20" y="22" width="1" height="1" fill="#9F70FF" />
<rect x="21" y="22" width="1" height="1" fill="#9F70FF" />
<rect x="22" y="22" width="1" height="1" fill="#9F70FF" />
<rect x="23" y="22" width="1" height="1" fill="#9F70FF" />
<rect x="24" y="22" width="1" height="1" fill="#9F70FF" />
<rect x="6" y="23" width="1" height="1" fill="#9F70FF" />
<rect x="7" y="23" width="1" height="1" fill="#9F70FF" />
<rect x="8" y="23" width="1" height="1" fill="#9F70FF" />
<rect x="9" y="23" width="1" height="1" fill="#9F70FF" />
<rect x="10" y="23" width="1" height="1" fill="#9F70FF" />
<rect x="21" y="23" width="1" height="1" fill="#9F70FF" />
<rect x="22" y="23" width="1" height="1" fill="#9F70FF" />
<rect x="23" y="23" width="1" height="1" fill="#9F70FF" />
<rect x="24" y="23" width="1" height="1" fill="#9F70FF" />
<rect x="25" y="23" width="1" height="1" fill="#9F70FF" />
<rect x="5" y="24" width="1" height="1" fill="#9F70FF" />
<rect x="6" y="24" width="1" height="1" fill="#9F70FF" />
<rect x="7" y="24" width="1" height="1" fill="#9F70FF" />
<rect x="8" y="24" width="1" height="1" fill="#9F70FF" />
<rect x="9" y="24" width="1" height="1" fill="#9F70FF" />
<rect x="22" y="24" width="1" height="1" fill="#9F70FF" />
<rect x="23" y="24" width="1" height="1" fill="#9F70FF" />
<rect x="24" y="24" width="1" height="1" fill="#9F70FF" />
<rect x="25" y="24" width="1" height="1" fill="#9F70FF" />
<rect x="26" y="24" width="1" height="1" fill="#9F70FF" />
<rect x="4" y="25" width="1" height="1" fill="#9F70FF" />
<rect x="5" y="25" width="1" height="1" fill="#9F70FF" />
<rect x="6" y="25" width="1" height="1" fill="#9F70FF" />
<rect x="7" y="25" width="1" height="1" fill="#9F70FF" />
<rect x="8" y="25" width="1" height="1" fill="#9F70FF" />
<rect x="23" y="25" width="1" height="1" fill="#9F70FF" />
<rect x="24" y="25" width="1" height="1" fill="#9F70FF" />
<rect x="25" y="25" width="1" height="1" fill="#9F70FF" />
<rect x="26" y="25" width="1" height="1" fill="#9F70FF" />
<rect x="27" y="25" width="1" height="1" fill="#9F70FF" />
<rect x="3" y="26" width="1" height="1" fill="#9F70FF" />
<rect x="4" y="26" width="1" height="1" fill="#9F70FF" />
<rect x="5" y="26" width="1" height="1" fill="#9F70FF" />
<rect x="6" y="26" width="1" height="1" fill="#9F70FF" />
<rect x="7" y="26" width="1" height="1" fill="#9F70FF" />
<rect x="24" y="26" width="1" height="1" fill="#9F70FF" />
<rect x="25" y="26" width="1" height="1" fill="#9F70FF" />
<rect x="26" y="26" width="1" height="1" fill="#9F70FF" />
<rect x="27" y="26" width="1" height="1" fill="#9F70FF" />
<rect x="28" y="26" width="1" height="1" fill="#9F70FF" />
<rect x="2" y="27" width="1" height="1" fill="#9F70FF" />
<rect x="3" y="27" width="1" height="1" fill="#9F70FF" />
<rect x="4" y="27" width="1" height="1" fill="#9F70FF" />
<rect x="5" y="27" width="1" height="1" fill="#9F70FF" />
<rect x="6" y="27" width="1" height="1" fill="#9F70FF" />
<rect x="25" y="27" width="1" height="1" fill="#9F70FF" />
<rect x="26" y="27" width="1" height="1" fill="#9F70FF" />
<rect x="27" y="27" width="1" height="1" fill="#9F70FF" />
<rect x="28" y="27" width="1" height="1" fill="#9F70FF" />
<rect x="29" y="27" width="1" height="1" fill="#9F70FF" />
<rect x="2" y="28" width="1" height="1" fill="#9F70FF" />
<rect x="3" y="28" width="1" height="1" fill="#9F70FF" />
<rect x="4" y="28" width="1" height="1" fill="#9F70FF" />
<rect x="5" y="28" width="1" height="1" fill="#9F70FF" />
<rect x="26" y="28" width="1" height="1" fill="#9F70FF" />
<rect x="27" y="28" width="1" height="1" fill="#9F70FF" />
<rect x="28" y="28" width="1" height="1" fill="#9F70FF" />
<rect x="29" y="28" width="1" height="1" fill="#9F70FF" />
<rect x="2" y="29" width="1" height="1" fill="#9F70FF" />
<rect x="3" y="29" width="1" height="1" fill="#9F70FF" />
<rect x="4" y="29" width="1" height="1" fill="#9F70FF" />
<rect x="27" y="29" width="1" height="1" fill="#9F70FF" />
<rect x="28" y="29" width="1" height="1" fill="#9F70FF" />
<rect x="29" y="29" width="1" height="1" fill="#9F70FF" />
</svg>